<svg xmlns="http://www.w3.org/2000/svg" viewBox="0 0 32 32">
  <defs>
    <linearGradient id="grad" x1="0%" y1="0%" x2="100%" y2="100%">
      <stop offset="0%" style="stop-color:#4285F4;stop-opacity:1" />
      <stop offset="100%" style="stop-color:#1a73e8;stop-opacity:1" />
    </linearGradient>
  </defs>
  <circle cx="16" cy="16" r="15" fill="url(#grad)"/>
  <path d="M16 1C7.7 1 1 7.7 1 16s6.7 15 15 15 15-6.7 15-15S24.3 1 16 1zm0 28C8.8 29 3 23.2 3 16S8.8 3 16 3s13 5.8 13 13-5.8 13-13 13z" fill="white" opacity="0.2"/>
  <path d="M4 16h24M16 4v24" stroke="white" stroke-width="0.5" opacity="0.2"/>
  <rect x="9" y="17" width="3" height="7" rx="1" fill="white"/>
  <rect x="14.5" y="13" width="3" height="11" rx="1" fill="white"/>
  <rect x="20" y="9" width="3" height="15" rx="1" fill="#34A853"/>
</svg>
